<svg version="1" xmlns="http://www.w3.org/2000/svg" width="346.667" height="346.667" viewBox="0 0 260.000000 260.000000"><path d="M145.5 7.8c-.1 7.9-2.9 14.8-11.9 28.5-3 4.7-6.8 11.1-8.3 14.1-1.5 3-3.1 5.5-3.4 5.5-.9.1-4.8-13.5-5.5-18.9-1.2-9.9-2.3-14-4.6-18.7-2.1-4.2-11.7-15.8-12.4-15-.2.2.4 1.9 1.3 3.8 2.3 4.7 4.2 13.1 3.6 16.5-.3 1.6-1.9 7.6-3.5 13.4-3.7 12.5-3.9 20.7-1 29.7 1.1 3.5 1.8 6.3 1.6 6.3-.7 0-5.6-5.6-8.3-9.5-1.5-2.2-4.7-7.6-7-12-8-15-14.6-21.7-24.8-25.6-2.6-1-2.5-.7 1.3 3.3C70.7 37.8 72 42 72.5 60c.1 7 .6 14.2 1 15.9l.7 3.3-2.9-1.6c-1.6-.8-7-5.3-11.9-10.1C48.7 57.2 42.8 54 33.3 53.3l-6.8-.4L32 56c10 5.6 13.7 10.5 18.8 24.7 1.7 4.5 5.1 11.3 7.6 15.3 2.5 3.9 4.6 7.3 4.6 7.6 0 .9-6.7-.5-11.7-2.5-2.6-1-8.8-3.5-13.7-5.5-9.7-4.1-16.2-4.9-24.7-3.4C6.6 93.3 4.1 95 8.8 95c4.4 0 11.9 2.7 16.7 6 2.2 1.5 8.7 7.6 14.5 13.5 5.8 5.8 11.7 11.4 13.2 12.3 1.6.9 2.8 2 2.8 2.4 0 2.1-6 2.4-25 1.4-7.2-.4-12.1-.2-15.5.8-6.8 1.8-11.7 4.4-10.9 5.8.4.6.3.8-.3.5-.6-.4-1.9 0-2.9.8-1.7 1.4-1.6 1.4 2.1.9 2.2-.3 4.5-.7 5.2-.9 3.1-1 15.7 3.1 29.2 9.5 8.2 3.8 15.5 7 16.2 7 .8 0 2 .4 2.8.9 2 1.3-6.7 5.5-18.1 8.7-5.1 1.5-11.1 3.6-13.3 4.7-4.9 2.4-12.5 8.5-12.5 10 0 .6 1 .2 2.3-.9 5.8-5.2 12.2-7.4 27.3-9.4 16.7-2.2 21-3.8 27.7-10.5 1.5-1.6 2.9-2.6 3.1-2.4.2.2 1.1 1.8 1.9 3.5 1.6 3 1.5 3.2-1.1 5.6-6.2 5.6-9.8 6.8-21.7 7.4-24.6 1.1-31 2.3-36.2 6.4-1.4 1.1-2.9 1.7-3.3 1.5-.5-.3-1.8.8-3 2.5-1.2 1.6-1.7 3-1.1 3 .5 0 1.3-.5 1.6-1 .4-.6 3-2.2 5.8-3.7 5.5-2.8 13-3.5 21.2-2.1 14.5 2.5 17.2 2.7 20.3 1.6l2.2-.8-1.9 3.8c-1 2-2.8 8.8-4 15.1-1.2 6.3-3.1 13-4.1 15-2.1 4-6.9 9.3-10.6 11.8-3.4 2.2-2.6 2.5 2.5.7 11.7-4 16.1-7.4 25-19.4 5.9-8 13-16 14.1-16 .4 0 .8 3 .8 6.8.1 3.7.4 8.3.6 10.2.6 3.8 1.9 18.3 1.9 21.5.2 5.6-1.6 12.6-4.3 16.8-1.6 2.6-2.7 4.7-2.5 4.7.3 0 2.3-1.1 4.4-2.4 7.8-4.9 12.1-12.5 17.2-30.2 1.7-6 4-12.4 5.2-14.3l2.1-3.4 1.8 5.3c1 2.9 4.1 10 6.9 15.9 8.8 18.2 10.2 24.6 8 34.3-1.2 5.1.2 4.8 3.5-.8 4.7-8 5.7-12.1 5.4-22.9-.8-28.7-.3-31.6 4.2-24.8 3.1 4.7 11.7 13.6 18.1 18.8 8 6.5 12.9 15.7 12.9 24.2 0 1.8.3 3.3.7 3.3 1.1 0 3.3-6.8 3.8-12 .6-6.1-.8-11.1-6.2-23-2.4-5.3-4.6-11.2-5-13.2l-.7-3.6 5.9 2.8c3.2 1.5 9.3 3.9 13.5 5.5 4.2 1.5 9.8 4.1 12.5 5.9 4.9 3.2 12.2 12.6 12.3 15.8 0 1 .4 1.8.8 1.8 1.5 0 .1-10.3-2-15.4-2.2-5.3-7.5-13-12.5-18.1-5.4-5.5-11.6-13.9-13.9-19-2.6-5.6-2.5-6.6.7-3.7 2.7 2.6 14.4 8.7 18.4 9.7 1.7.4 9.4.9 17.2 1 15.7.3 20.1 1.6 27 8.1 3.8 3.6 4.2 2.7 1.1-2.5-5.7-9.4-9.7-12.9-21.1-18.6-11.4-5.6-20.7-11.4-20.7-12.8 0-.4 1-.7 2.3-.8 3.4-.1 4.7-.4 20-5 16.5-4.9 27.5-5.8 33.6-2.6 4.5 2.3 4.6 2.2 1.7-1.6-5.2-6.8-17.1-11.1-33.3-12.1-8.7-.6-14.9-1.7-17.7-3.3-1.4-.8-1-1.3 2.6-3.3 2.4-1.3 9.5-6.1 15.8-10.8 14.2-10.5 20.3-13.4 28.8-13.5 3.4-.1 6.2-.5 6.2-.9 0-.5-.1-.8-.3-.8-.1 0-2.9-.9-6.2-2.1-8.3-2.9-15.8-2.7-29.5 1-10.4 2.8-21 4-21 2.5 0-.3 1.3-1.8 2.8-3.2 4.1-3.9 10.5-12.8 14.1-19.7 1.7-3.3 4.9-7.9 7-10.3 4-4.4 12.9-9.2 17.1-9.2 1.7 0 2.1-.3 1.3-1.1-.6-.6-4.1-1.1-7.9-1.2-8.7-.2-14 1.7-24.2 9-7.8 5.7-16.2 10.6-16.9 9.9-.2-.2.1-1.5.7-3 .5-1.5 1.9-7.9 3-14.2 2.6-14.8 5-21 10-25.9 2.1-2.1 3.6-4.3 3.3-4.8-.3-.6-.1-.7.5-.3.7.4 2.2 0 3.4-.9 2.3-1.6 2.3-1.6-1-1.1-8.8 1.3-18.8 8.7-27.2 20.2-5.8 7.8-13.1 16.4-14 16.4-1.1 0 .5-7.1 2.6-11.5 1.1-2.2 4.4-8.2 7.4-13.4 5.8-10.1 7.7-15.9 7.4-22.4-.1-2.3-.2-5.7-.3-7.5 0-1.7-.6-3.2-1.3-3.2-.6 0-.9.3-.5.6.9 1-3.1 11.5-6 15.3-3.8 5-6.3 7.2-19.3 17-3.6 2.6-8.3 6.7-10.4 8.9-2.2 2.2-4.4 3.9-4.8 3.6-1.3-.8-.9-9.5.6-15.4 2.6-9.9 3.5-21.4 2.3-28.8-.6-3.6-4.5-12.2-5.5-12.2-.4 0-.7 3-.7 6.8zm3.7 1.9c.4 8.1-.5 13.2-4.7 26.2-4.4 13.7-5.3 18.6-5.4 29.8-.1 4.6-.4 5.3-2.1 5.3-2.5 0-3.8-2.6-4.3-8.6-.5-6.6 1.2-13.3 5.8-22.9 6.2-13 8.7-20.6 8.8-26.7.2-5.9 1.6-8.1 1.9-3.1zm-41 6c2.6 5.8 2.7 6.6 3.3 21.9.7 19.8 1.5 23.4 6.6 30.5 1.2 1.7 2 3.1 1.8 3.3-.2.1-1.7.7-3.3 1.4-3.6 1.6-5.1.5-8-5.8-1.8-4-2-6-1.6-16.5.9-24.8.6-33.8-1.4-37.4-1-1.8-1.2-3-.6-2.6.7.4 2.1 2.8 3.2 5.2zm81.5 8.2c-.5 3.9-3.2 10.4-5.4 13.1-15.5 18.9-17.9 22.6-21.4 32.4-.9 2.8-2.1 5.2-2.7 5.4-1.8.6-6.2-1.8-6.2-3.3 0-4.7 5.9-13.4 16-23.9 5.9-6.1 11.9-12.5 13.2-14.1 2.8-3.5 5.8-9.6 5.8-11.9 0-.9.3-1.6.6-1.6.4 0 .4 1.7.1 3.9zM73.8 37.5c1.9 2.8 4.9 10 7.2 17.5 4.3 13.7 7.6 19.7 13.3 24.7 2 1.8 3.7 3.4 3.7 3.5 0 .2-1.6 1.2-3.5 2.2L91 87.3l-3-2.8c-4.1-3.9-6.6-9.4-9-20-4.7-20.8-7.5-28-12.8-34l-2.7-2.9 3.5 2.5c1.9 1.4 5 4.7 6.8 7.4zm134 1.9c-4.8 4.6-8.2 10.5-13.4 23.8-5.7 14.3-8.6 19.2-13.6 22.9l-4.2 2.9-2.8-2.7c-1.5-1.5-2.8-2.9-2.8-3.2 0-.4 1.4-1.2 3.2-2 5.7-2.5 10.6-8.7 16.9-21.3 7-13.9 9.8-18 14.8-21.4 5.1-3.5 6.1-3 1.9 1zM39.7 56.2c5 2.2 10.2 7 16.5 15.2 3.4 4.5 8 10.1 10.2 12.4 4 4.3 14 10.2 17.1 10.2 1.6 0 1.1 1-3.1 6.8-.6.9-10.3-4.3-13.2-7.1-1.9-1.8-6.6-8.4-10.5-14.7C48.3 65.5 43 59.4 37.5 56.9c-2.2-1-3.2-1.9-2.3-1.9.9 0 3 .6 4.5 1.2zm194.1 11.4c-5.5 1.7-13.2 8.4-23.7 20.8-7.9 9.3-12.8 13.1-19.5 15.1l-4.6 1.4-1.5-2.9c-2.2-4.2-1.9-4.8 2.8-5.5 7.8-1.3 12-4.2 28.2-19.3 7.5-7 15.1-11.2 20-11.1 2.6 0 2.4.2-1.7 1.5zm-85.5 8.8c15.3 4.4 27.5 15.4 33.7 30.4 3.5 8.1 4.1 11.4 4.2 21.2.3 22.8-13.1 43.9-34.2 53.8-24.5 11.4-52.9 3.8-67.8-18-6.3-9.3-8.4-16.8-8.7-30.8-.1-8.7 2.1-17.6 6.7-27C86 98.1 97.9 85.8 106 81.5c13.1-7 29.2-8.9 42.3-5.1zM29.1 96c2.4 1.2 8.4 4.7 13.2 7.8 12 7.5 18.3 9.9 25.2 9.7l5.6-.1-.6 3.5c-.4 2-.8 3.7-1 3.9-.2.2-2.4.4-4.8.4-6.6 0-12.6-3.1-24.8-12.7C30.7 99.7 24 95.7 17.4 94c-3.7-.9-3.6-.9 1.7-.6 3.1.3 7.6 1.4 10 2.6zm222.4 11c1.5.6.8.8-2.5.8-2.5-.1-5.8.2-7.3.5-2.9.6-16.2 7.2-22.7 11.2-8 4.9-13.4 6.7-20.2 6.9-3.6 0-6.9-.1-7.1-.4-.3-.3-.7-2.1-1-4.2l-.5-3.6 6.9.5c8.3.7 12.9-.4 26.8-6.4 5.8-2.5 11.7-4.9 13.1-5.3 3.3-1.1 12-1.1 14.5 0zM30.1 135.6c10.3 2.4 11.4 2.6 19 3.1 6.3.4 8.7.2 13.4-1.6 3.2-1.2 5.9-2 6-1.9.2.2.5 1.9.7 3.8.3 3-.1 3.7-2.7 4.9-5.7 2.8-14.3 2.3-26.6-1.6-16.8-5.2-21.5-6.2-29.1-5.7-5.5.4-5.8-.4-.6-1.6 4.6-1.2 13.3-.9 19.9.6zm194.3 11c18.2 0 20.5.2 24.7 2.1 6.5 3 6.9 4.3.5 2.2-3.7-1.3-7.4-1.7-12.7-1.4-7.8.4-14 1.1-16.7 1.9-.9.3-5 .8-9 1.2-7.8.7-14.2-.5-19.8-3.8-3-1.8-3.1-2-2.1-5.6l1-3.9 7 3.6 7 3.6 20.1.1zM187.6 165c4.9 5.4 8.3 7.3 19.9 11 18.7 5.9 21.5 7.1 26.3 11.7 4.8 4.5 4.3 4.7-1.6.7-4.1-2.8-10.7-4.8-25.9-7.9-13.8-2.7-19.6-5.1-24.2-9.9l-3.3-3.4 2.3-3.1c1.2-1.7 2.4-3.1 2.6-3.1.2 0 1.9 1.8 3.9 4zm-103 7.2c1.3 1.3 2.4 2.6 2.4 3 0 .4-2.4 2.3-5.4 4.2-6.6 4.2-9.5 7.8-15.3 18.7-9.2 17.4-12.2 21.2-19.5 25.2l-3.3 1.8 3.7-3.1c5.1-4.3 8.9-10.7 14.3-24 7.3-17.9 9.4-20.9 17.5-26.3 3.1-2.1 2.8-2.1 5.6.5zm81.9 11.5c2.6 6.1 6.1 9.9 18.5 19.9 12.3 9.8 15 12.7 17.6 19 2.2 5.3 1.2 5.1-2.5-.5-3.3-5.2-10.9-11.3-24.4-19.6-8.3-5.1-13.1-9.6-15.9-14.8-1.6-3.2-1.6-3.2 1-5.4 3.6-3 3.9-2.9 5.7 1.4zm-64.8 2.5c1.5.7 3 1.3 3.2 1.5.2.1-1.1 2-2.8 4.2-5.6 7-7.8 13.7-9.7 29.1-1.3 11.1-5.6 22.4-9.8 25.9-1 .8-.6-.4.8-3 3.3-5.8 4.6-12.1 5.1-24.3 1-20.7 2.4-27.1 7.4-32.4 2.5-2.6 2.2-2.5 5.8-1zm47 7.3c.4 6.4 3 12.5 10.9 25.5 8.7 14.3 9.3 15.9 9.9 22.9l.5 5.6-1.4-4.6c-2.2-7.7-5.5-13.2-14.4-24.6-9.4-11.9-13.2-19-13.2-24.3 0-3.2.4-3.7 3.3-4.6 1.7-.5 3.4-.8 3.7-.6.2.2.6 2.3.7 4.7zm-25.2 6.9c-.3 9.7-.1 11.2 3.5 27.5 2.4 11.1 2.5 17.9.6 22.6-1.8 4.1-3 4.8-1.5.8 1.8-4.6.2-14.2-4.8-29.4-3.5-10.7-4.7-15.8-4.6-19.9.2-7.5 1.5-10.5 4.6-10.8l2.5-.2-.3 9.4z"/><path d="M134.4 78.4c1.2 5 1.9 16.4 2.1 34.1.1 10.4.5 21 .9 23.5.7 4 .4 5.3-2.6 11.3-1.9 3.7-3.2 6.9-3 7.2.3.3 2.6.5 5.1.5 9.3 0 19.1 3.8 23.5 9.1 4.1 4.8 1.9 5.4-6.5 1.8-6.5-2.8-8.4-3.2-15.8-3.1-4.6.1-8.5.3-8.6.4-.2.2-.5 4.3-.8 9.3-.3 4.9-.9 9.8-1.3 10.9-.7 1.8-.3 1.8 5.9 1.2 39.3-3.8 62.9-47.1 44.6-81.6-7.5-14.2-23.3-24.8-39.2-26.3-4.5-.4-4.8-.3-4.3 1.7zm32.5 24.8c2.2 1.2 5.3 3.5 6.8 5.1l2.8 2.9-4-1.7c-2.2-.9-5.6-2.4-7.5-3.2-1.9-.9-6.4-1.6-9.9-1.7-6.8-.1-8.7-1.5-4.9-3.4 3.2-1.7 11.8-.6 16.7 2zm-3.8 10.6c5.3 2.7 10.9 6.9 10.9 8.2 0 .4-2.5.3-5.5-.3-4.3-.7-6.6-.6-10.1.6-2.6.8-4.7 1.1-5 .5-.7-1.1-1.1-10.7-.5-11.3 1.1-1.2 5.2-.3 10.2 2.3zm2.1 20.9c-2.3 1.9-3.4.4-2.7-3.6 1-5.5 1.7-5.9 3-1.5 1 3.2.9 4.1-.3 5.1zm-4.7 15.1c3.5 2.9 4.7 5 5.1 8.9l.4 3.8-1.5-3c-.8-1.7-1.4-3.5-1.5-4.2 0-.6-1.4-2.5-3.1-4.2-3.2-3.3-2.8-4.2.6-1.3zM107.5 100.7c-1.1.3-4.2 1.1-6.8 2-2.6.8-5.6 1.6-6.5 1.8-.9.2-1.9.4-2.2.5-.3.1.5.5 1.7 1 1.3.6 4 .4 7.4-.5 5.1-1.4 12.6-1.4 16.8 0 2.7.8 3.4-.9 1.2-2.9-1.9-1.7-7.7-2.6-11.6-1.9zM113.9 111.4c-.5.6-9 1.5-14.1 1.6-1.6 0-2.8.4-2.8.9 0 1.7 10.5 6.1 15.9 6.8l5.2.6-.3-4.9c-.2-3.4-.8-5-1.8-5.2-.9-.1-1.8 0-2.1.2zM97.9 143.3c-4.3 3.3-8.1 14.7-4.8 14.7.5 0 .8-.4.5-.8-.9-1.4 1.3-7.7 3.9-11.6 1.3-2 2.3-3.6 2.2-3.6-.1 0-.9.6-1.8 1.3z"/><path d="M100 149.5c0 3.6 15.1 11.9 23.7 13.1l5.1.6 1.1-3.8c.6-2.1.9-3.9.8-4-.1-.1-3.1-.4-6.6-.8-6-.5-15.4-3-17.6-4.6-.5-.4-2.2-1-3.7-1.4-2.1-.5-2.8-.3-2.8.9z"/></svg>